<mxfile host="www.draw.io" modified="2019-11-11T08:41:16.885Z" agent="Mozilla/5.0 (Macintosh; Intel Mac OS X 10_15_1) AppleWebKit/537.36 (KHTML, like Gecko) Chrome/78.0.3904.87 Safari/537.36" etag="d0mVSUUQbO0wkRP1i-rF" version="12.2.3" type="github" pages="1">
  <diagram id="X22sX5QwYgRkkETN-2Oq" name="Package_tree">
    <mxGraphModel dx="1172" dy="701" grid="1" gridSize="10" guides="1" tooltips="1" connect="1" arrows="1" fold="1" page="1" pageScale="1" pageWidth="827" pageHeight="1169" background="none" math="0" shadow="0">
      <root>
        <mxCell id="0"/>
        <mxCell id="1" parent="0"/>
        <mxCell id="KumTwc9kImUSRbm_J5hq-8" value="" style="edgeStyle=none;endArrow=none;strokeWidth=2;strokeColor=#2F5B7C;html=1;entryX=1;entryY=0.5;entryDx=0;entryDy=0;exitX=0;exitY=0.25;exitDx=0;exitDy=0;" parent="1" source="KumTwc9kImUSRbm_J5hq-26" target="KumTwc9kImUSRbm_J5hq-11" edge="1">
          <mxGeometry x="-644.5" y="-105" width="100" height="100" as="geometry">
            <mxPoint x="1300" y="45" as="sourcePoint"/>
            <mxPoint x="1220" y="50" as="targetPoint"/>
            <Array as="points"/>
          </mxGeometry>
        </mxCell>
        <mxCell id="KumTwc9kImUSRbm_J5hq-64" value="" style="edgeStyle=orthogonalEdgeStyle;rounded=0;orthogonalLoop=1;jettySize=auto;html=1;startSize=30;strokeColor=#2F5B7C;strokeWidth=3;fontSize=30;fontColor=#000000;endArrow=block;endFill=1;" parent="1" source="KumTwc9kImUSRbm_J5hq-11" target="KumTwc9kImUSRbm_J5hq-63" edge="1">
          <mxGeometry relative="1" as="geometry"/>
        </mxCell>
        <mxCell id="KumTwc9kImUSRbm_J5hq-11" value="trml" style="ellipse;whiteSpace=wrap;html=1;shadow=0;fontFamily=Helvetica;fontSize=30;fontColor=#FFFFFF;align=center;strokeColor=none;strokeWidth=6;fillColor=#2F5B7C;fontStyle=0;gradientColor=none;aspect=fixed;" parent="1" vertex="1">
          <mxGeometry x="1205" y="10" width="70" height="70" as="geometry"/>
        </mxCell>
        <mxCell id="KumTwc9kImUSRbm_J5hq-63" value="core2pkgs" style="ellipse;whiteSpace=wrap;html=1;shadow=0;fontFamily=Helvetica;fontSize=30;fontColor=#FFFFFF;align=center;strokeColor=none;strokeWidth=6;fillColor=#E85642;fontStyle=0;gradientColor=none;" parent="1" vertex="1">
          <mxGeometry x="1160" y="110" width="160" height="60" as="geometry"/>
        </mxCell>
        <mxCell id="KumTwc9kImUSRbm_J5hq-26" value="shell" style="swimlane;fontStyle=0;childLayout=stackLayout;horizontal=1;startSize=29;fillColor=#2F5B7C;horizontalStack=0;resizeParent=1;resizeParentMax=0;resizeLast=0;collapsible=1;marginBottom=0;swimlaneFillColor=#ffffff;align=center;fontSize=14;rounded=0;shadow=0;strokeWidth=2;fontColor=#FFFFFF;spacing=2;spacingTop=0;strokeColor=#2F5B7C;swimlaneLine=1;html=1;overflow=visible;" parent="1" vertex="1">
          <mxGeometry x="1300" y="36" width="60" height="55" as="geometry">
            <mxRectangle x="1300" y="10" width="70" height="30" as="alternateBounds"/>
          </mxGeometry>
        </mxCell>
        <mxCell id="KumTwc9kImUSRbm_J5hq-27" value="Shell" style="text;spacingLeft=4;spacingRight=4;overflow=hidden;rotatable=0;points=[[0,0.5],[1,0.5]];portConstraint=eastwest;fontSize=12;perimeterSpacing=0;" parent="KumTwc9kImUSRbm_J5hq-26" vertex="1">
          <mxGeometry y="29" width="60" height="26" as="geometry"/>
        </mxCell>
        <mxCell id="KumTwc9kImUSRbm_J5hq-65" value="" style="edgeStyle=none;endArrow=none;strokeWidth=2;strokeColor=#E85642;html=1;entryX=1;entryY=0.5;entryDx=0;entryDy=0;exitX=0;exitY=0.25;exitDx=0;exitDy=0;rounded=1;" parent="1" source="KumTwc9kImUSRbm_J5hq-66" target="KumTwc9kImUSRbm_J5hq-63" edge="1">
          <mxGeometry x="-609.5" y="-5" width="100" height="100" as="geometry">
            <mxPoint x="1335" y="145" as="sourcePoint"/>
            <mxPoint x="1300.0000000000018" y="120" as="targetPoint"/>
            <Array as="points"/>
          </mxGeometry>
        </mxCell>
        <mxCell id="KumTwc9kImUSRbm_J5hq-66" value="config" style="swimlane;fontStyle=0;childLayout=stackLayout;horizontal=1;startSize=29;fillColor=#E85642;horizontalStack=0;resizeParent=1;resizeParentMax=0;resizeLast=0;collapsible=1;marginBottom=0;swimlaneFillColor=#ffffff;align=center;fontSize=14;rounded=0;shadow=0;strokeWidth=2;fontColor=#FFFFFF;spacing=2;spacingTop=0;strokeColor=#E85642;swimlaneLine=1;html=1;overflow=visible;" parent="1" vertex="1">
          <mxGeometry x="1330" y="110" width="80" height="81" as="geometry">
            <mxRectangle x="1330" y="110" width="70" height="30" as="alternateBounds"/>
          </mxGeometry>
        </mxCell>
        <mxCell id="KumTwc9kImUSRbm_J5hq-67" value="Color" style="text;spacingLeft=4;spacingRight=4;overflow=hidden;rotatable=0;points=[[0,0.5],[1,0.5]];portConstraint=eastwest;fontSize=12;perimeterSpacing=0;" parent="KumTwc9kImUSRbm_J5hq-66" vertex="1">
          <mxGeometry y="29" width="80" height="26" as="geometry"/>
        </mxCell>
        <mxCell id="KumTwc9kImUSRbm_J5hq-70" value="Messages" style="text;spacingLeft=4;spacingRight=4;overflow=hidden;rotatable=0;points=[[0,0.5],[1,0.5]];portConstraint=eastwest;fontSize=12;perimeterSpacing=0;" parent="KumTwc9kImUSRbm_J5hq-66" vertex="1">
          <mxGeometry y="55" width="80" height="26" as="geometry"/>
        </mxCell>
        <mxCell id="KumTwc9kImUSRbm_J5hq-71" value="" style="edgeStyle=none;endArrow=classic;strokeWidth=1;strokeColor=#E85642;html=1;entryX=1;entryY=0.5;entryDx=0;entryDy=0;rounded=0;exitX=1;exitY=0.5;exitDx=0;exitDy=0;endFill=1;" parent="KumTwc9kImUSRbm_J5hq-66" source="KumTwc9kImUSRbm_J5hq-67" target="KumTwc9kImUSRbm_J5hq-70" edge="1">
          <mxGeometry x="-1934.5" y="-105" width="100" height="100" as="geometry">
            <mxPoint x="145" y="42" as="sourcePoint"/>
            <mxPoint x="-4.999999999998181" y="40" as="targetPoint"/>
            <Array as="points">
              <mxPoint x="100" y="42"/>
              <mxPoint x="100" y="68"/>
            </Array>
          </mxGeometry>
        </mxCell>
        <mxCell id="KumTwc9kImUSRbm_J5hq-69" value="" style="rounded=1;orthogonalLoop=1;jettySize=auto;html=1;startSize=30;endArrow=classic;endFill=1;strokeColor=#D79B00;strokeWidth=2;fontSize=30;fontColor=#000000;exitX=1;exitY=0.5;exitDx=0;exitDy=0;" parent="1" source="KumTwc9kImUSRbm_J5hq-132" target="KumTwc9kImUSRbm_J5hq-63" edge="1">
          <mxGeometry relative="1" as="geometry">
            <mxPoint x="1180" y="190.5" as="sourcePoint"/>
          </mxGeometry>
        </mxCell>
        <mxCell id="KumTwc9kImUSRbm_J5hq-72" value="core" style="swimlane;fontStyle=0;childLayout=stackLayout;horizontal=1;startSize=29;fillColor=#E85642;horizontalStack=0;resizeParent=1;resizeParentMax=0;resizeLast=0;collapsible=1;marginBottom=0;swimlaneFillColor=#ffffff;align=center;fontSize=14;rounded=0;shadow=0;strokeWidth=2;fontColor=#FFFFFF;spacing=2;spacingTop=0;strokeColor=#E85642;swimlaneLine=1;html=1;overflow=visible;" parent="1" vertex="1">
          <mxGeometry x="1330" y="200" width="80" height="55" as="geometry">
            <mxRectangle x="1330" y="200" width="70" height="30" as="alternateBounds"/>
          </mxGeometry>
        </mxCell>
        <mxCell id="KumTwc9kImUSRbm_J5hq-73" value="Core" style="text;spacingLeft=4;spacingRight=4;overflow=hidden;rotatable=0;points=[[0,0.5],[1,0.5]];portConstraint=eastwest;fontSize=12;perimeterSpacing=0;" parent="KumTwc9kImUSRbm_J5hq-72" vertex="1">
          <mxGeometry y="29" width="80" height="26" as="geometry"/>
        </mxCell>
        <mxCell id="KumTwc9kImUSRbm_J5hq-75" value="" style="edgeStyle=none;endArrow=classic;strokeWidth=1;strokeColor=#E85642;html=1;entryX=0;entryY=0.5;entryDx=0;entryDy=0;rounded=0;exitX=0;exitY=0.5;exitDx=0;exitDy=0;endFill=1;" parent="1" source="KumTwc9kImUSRbm_J5hq-70" target="KumTwc9kImUSRbm_J5hq-73" edge="1">
          <mxGeometry x="-599.5" y="95" width="100" height="100" as="geometry">
            <mxPoint x="1480" y="242" as="sourcePoint"/>
            <mxPoint x="1330.0000000000018" y="240" as="targetPoint"/>
            <Array as="points">
              <mxPoint x="1310" y="178"/>
              <mxPoint x="1310" y="242"/>
            </Array>
          </mxGeometry>
        </mxCell>
        <mxCell id="KumTwc9kImUSRbm_J5hq-78" value="samples" style="swimlane;fontStyle=0;childLayout=stackLayout;horizontal=1;startSize=29;fillColor=#f8cecc;horizontalStack=0;resizeParent=1;resizeParentMax=0;resizeLast=0;collapsible=1;marginBottom=0;swimlaneFillColor=#ffffff;align=center;fontSize=14;rounded=0;shadow=0;strokeWidth=2;spacing=2;spacingTop=0;strokeColor=#B85450;swimlaneLine=1;html=1;overflow=visible;" parent="1" vertex="1">
          <mxGeometry x="1375" y="10" width="80" height="81" as="geometry">
            <mxRectangle x="1375" y="10" width="70" height="30" as="alternateBounds"/>
          </mxGeometry>
        </mxCell>
        <mxCell id="KumTwc9kImUSRbm_J5hq-79" value="clear" style="text;spacingLeft=4;spacingRight=4;overflow=hidden;rotatable=0;points=[[0,0.5],[1,0.5]];portConstraint=eastwest;fontSize=12;perimeterSpacing=0;" parent="KumTwc9kImUSRbm_J5hq-78" vertex="1">
          <mxGeometry y="29" width="80" height="26" as="geometry"/>
        </mxCell>
        <mxCell id="KumTwc9kImUSRbm_J5hq-80" value="add_line" style="text;spacingLeft=4;spacingRight=4;overflow=hidden;rotatable=0;points=[[0,0.5],[1,0.5]];portConstraint=eastwest;fontSize=12;perimeterSpacing=0;" parent="KumTwc9kImUSRbm_J5hq-78" vertex="1">
          <mxGeometry y="55" width="80" height="26" as="geometry"/>
        </mxCell>
        <mxCell id="KumTwc9kImUSRbm_J5hq-85" value="" style="edgeStyle=none;endArrow=none;strokeWidth=2;strokeColor=#2F5B7C;html=1;rounded=0;exitX=0;exitY=0.25;exitDx=0;exitDy=0;" parent="1" source="KumTwc9kImUSRbm_J5hq-78" edge="1">
          <mxGeometry x="-634.5" y="-95" width="100" height="100" as="geometry">
            <mxPoint x="1470" y="70" as="sourcePoint"/>
            <mxPoint x="1256" y="14" as="targetPoint"/>
          </mxGeometry>
        </mxCell>
        <mxCell id="KumTwc9kImUSRbm_J5hq-86" value="filem" style="ellipse;whiteSpace=wrap;html=1;shadow=0;fontFamily=Helvetica;fontSize=30;fontColor=#FFFFFF;align=center;strokeColor=none;strokeWidth=6;fillColor=#736CA8;fontStyle=0;gradientColor=none;" parent="1" vertex="1">
          <mxGeometry x="1200" y="260" width="80" height="50" as="geometry"/>
        </mxCell>
        <mxCell id="KumTwc9kImUSRbm_J5hq-89" value="" style="edgeStyle=orthogonalEdgeStyle;rounded=0;orthogonalLoop=1;jettySize=auto;html=1;startSize=30;strokeColor=#E85642;strokeWidth=3;fontSize=30;fontColor=#000000;endArrow=block;endFill=1;exitX=0.5;exitY=1;exitDx=0;exitDy=0;entryX=0.5;entryY=0;entryDx=0;entryDy=0;" parent="1" source="KumTwc9kImUSRbm_J5hq-63" target="KumTwc9kImUSRbm_J5hq-86" edge="1">
          <mxGeometry relative="1" as="geometry">
            <mxPoint x="1250" y="90" as="sourcePoint"/>
            <mxPoint x="1250" y="120" as="targetPoint"/>
          </mxGeometry>
        </mxCell>
        <mxCell id="KumTwc9kImUSRbm_J5hq-94" value="" style="rounded=1;orthogonalLoop=1;jettySize=auto;html=1;startSize=30;endArrow=classic;endFill=1;strokeColor=#D79B00;strokeWidth=2;fontSize=30;fontColor=#000000;exitX=1;exitY=0.5;exitDx=0;exitDy=0;entryX=0;entryY=0;entryDx=0;entryDy=0;" parent="1" source="KumTwc9kImUSRbm_J5hq-133" target="KumTwc9kImUSRbm_J5hq-86" edge="1">
          <mxGeometry relative="1" as="geometry">
            <mxPoint x="1197.1180698225003" y="273.1424715566982" as="targetPoint"/>
            <mxPoint x="1180" y="262.5" as="sourcePoint"/>
          </mxGeometry>
        </mxCell>
        <mxCell id="KumTwc9kImUSRbm_J5hq-99" value="" style="rounded=1;orthogonalLoop=1;jettySize=auto;html=1;startSize=30;endArrow=classic;endFill=1;strokeColor=#D79B00;strokeWidth=2;fontSize=30;fontColor=#000000;exitX=1;exitY=0.5;exitDx=0;exitDy=0;entryX=0;entryY=1;entryDx=0;entryDy=0;" parent="1" source="KumTwc9kImUSRbm_J5hq-134" target="KumTwc9kImUSRbm_J5hq-86" edge="1">
          <mxGeometry relative="1" as="geometry">
            <mxPoint x="1197.1180698225003" y="313.1424715566982" as="targetPoint"/>
            <mxPoint x="1180" y="312.5" as="sourcePoint"/>
          </mxGeometry>
        </mxCell>
        <mxCell id="KumTwc9kImUSRbm_J5hq-101" value="file_manager" style="swimlane;fontStyle=0;childLayout=stackLayout;horizontal=1;startSize=29;fillColor=#736CA8;horizontalStack=0;resizeParent=1;resizeParentMax=0;resizeLast=0;collapsible=1;marginBottom=0;swimlaneFillColor=#ffffff;align=center;fontSize=14;rounded=0;shadow=0;strokeWidth=2;fontColor=#FFFFFF;spacing=2;spacingTop=0;strokeColor=#736CA8;swimlaneLine=1;html=1;overflow=visible;" parent="1" vertex="1">
          <mxGeometry x="1295" y="270" width="115" height="81" as="geometry">
            <mxRectangle x="1295" y="270" width="70" height="30" as="alternateBounds"/>
          </mxGeometry>
        </mxCell>
        <mxCell id="KumTwc9kImUSRbm_J5hq-102" value="Messages" style="text;spacingLeft=4;spacingRight=4;overflow=hidden;rotatable=0;points=[[0,0.5],[1,0.5]];portConstraint=eastwest;fontSize=12;perimeterSpacing=0;" parent="KumTwc9kImUSRbm_J5hq-101" vertex="1">
          <mxGeometry y="29" width="115" height="26" as="geometry"/>
        </mxCell>
        <mxCell id="KumTwc9kImUSRbm_J5hq-104" value="FileManager" style="text;spacingLeft=4;spacingRight=4;overflow=hidden;rotatable=0;points=[[0,0.5],[1,0.5]];portConstraint=eastwest;fontSize=12;perimeterSpacing=0;" parent="KumTwc9kImUSRbm_J5hq-101" vertex="1">
          <mxGeometry y="55" width="115" height="26" as="geometry"/>
        </mxCell>
        <mxCell id="KumTwc9kImUSRbm_J5hq-105" value="" style="edgeStyle=none;endArrow=classic;strokeWidth=1;strokeColor=#736CA8;html=1;entryX=1;entryY=0.5;entryDx=0;entryDy=0;rounded=0;endFill=1;" parent="KumTwc9kImUSRbm_J5hq-101" target="KumTwc9kImUSRbm_J5hq-104" edge="1">
          <mxGeometry x="-3219.5" y="-365" width="100" height="100" as="geometry">
            <mxPoint x="135" y="42" as="sourcePoint"/>
            <mxPoint x="125" y="-82" as="targetPoint"/>
            <Array as="points">
              <mxPoint x="135" y="68"/>
            </Array>
          </mxGeometry>
        </mxCell>
        <mxCell id="KumTwc9kImUSRbm_J5hq-103" value="" style="edgeStyle=none;endArrow=none;strokeWidth=2;strokeColor=#736CA8;html=1;entryX=1;entryY=0.5;entryDx=0;entryDy=0;exitX=0;exitY=0.25;exitDx=0;exitDy=0;rounded=1;" parent="1" source="KumTwc9kImUSRbm_J5hq-101" target="KumTwc9kImUSRbm_J5hq-86" edge="1">
          <mxGeometry x="-599.5" y="5" width="100" height="100" as="geometry">
            <mxPoint x="1340" y="162" as="sourcePoint"/>
            <mxPoint x="1330.0000000000018" y="150" as="targetPoint"/>
            <Array as="points"/>
          </mxGeometry>
        </mxCell>
        <mxCell id="KumTwc9kImUSRbm_J5hq-106" value="" style="edgeStyle=none;endArrow=classic;strokeWidth=1;strokeColor=#E85642;html=1;rounded=0;endFill=1;entryX=1;entryY=0.5;entryDx=0;entryDy=0;" parent="1" target="KumTwc9kImUSRbm_J5hq-102" edge="1">
          <mxGeometry x="-3209.5" y="-355" width="100" height="100" as="geometry">
            <mxPoint x="1430" y="178" as="sourcePoint"/>
            <mxPoint x="1410" y="310" as="targetPoint"/>
            <Array as="points">
              <mxPoint x="1430" y="312"/>
            </Array>
          </mxGeometry>
        </mxCell>
        <mxCell id="KumTwc9kImUSRbm_J5hq-108" value="csv" style="swimlane;fontStyle=0;childLayout=stackLayout;horizontal=1;startSize=29;fillColor=#736CA8;horizontalStack=0;resizeParent=1;resizeParentMax=0;resizeLast=0;collapsible=1;marginBottom=0;swimlaneFillColor=#ffffff;align=center;fontSize=14;rounded=0;shadow=0;strokeWidth=2;fontColor=#FFFFFF;spacing=2;spacingTop=0;strokeColor=#736CA8;swimlaneLine=1;html=1;overflow=visible;" parent="1" vertex="1">
          <mxGeometry x="1295" y="360" width="115" height="81" as="geometry">
            <mxRectangle x="1300" y="260" width="70" height="30" as="alternateBounds"/>
          </mxGeometry>
        </mxCell>
        <mxCell id="KumTwc9kImUSRbm_J5hq-109" value="Messages" style="text;spacingLeft=4;spacingRight=4;overflow=hidden;rotatable=0;points=[[0,0.5],[1,0.5]];portConstraint=eastwest;fontSize=12;perimeterSpacing=0;" parent="KumTwc9kImUSRbm_J5hq-108" vertex="1">
          <mxGeometry y="29" width="115" height="26" as="geometry"/>
        </mxCell>
        <mxCell id="KumTwc9kImUSRbm_J5hq-110" value="Csv" style="text;spacingLeft=4;spacingRight=4;overflow=hidden;rotatable=0;points=[[0,0.5],[1,0.5]];portConstraint=eastwest;fontSize=12;perimeterSpacing=0;" parent="KumTwc9kImUSRbm_J5hq-108" vertex="1">
          <mxGeometry y="55" width="115" height="26" as="geometry"/>
        </mxCell>
        <mxCell id="KumTwc9kImUSRbm_J5hq-112" value="" style="edgeStyle=none;endArrow=classic;strokeWidth=1;strokeColor=#736CA8;html=1;entryX=1;entryY=0.5;entryDx=0;entryDy=0;rounded=0;endFill=1;exitX=1;exitY=0.5;exitDx=0;exitDy=0;" parent="KumTwc9kImUSRbm_J5hq-108" source="KumTwc9kImUSRbm_J5hq-109" target="KumTwc9kImUSRbm_J5hq-110" edge="1">
          <mxGeometry x="-3209.5" y="-355" width="100" height="100" as="geometry">
            <mxPoint x="165" y="42" as="sourcePoint"/>
            <mxPoint x="125" y="51.999999999999886" as="targetPoint"/>
            <Array as="points">
              <mxPoint x="135" y="42"/>
              <mxPoint x="135" y="68"/>
            </Array>
          </mxGeometry>
        </mxCell>
        <mxCell id="KumTwc9kImUSRbm_J5hq-111" value="" style="edgeStyle=none;endArrow=classic;strokeWidth=1;strokeColor=#736CA8;html=1;entryX=0;entryY=0.5;entryDx=0;entryDy=0;rounded=0;endFill=1;exitX=0;exitY=0.5;exitDx=0;exitDy=0;" parent="1" source="KumTwc9kImUSRbm_J5hq-104" target="KumTwc9kImUSRbm_J5hq-109" edge="1">
          <mxGeometry x="-1924.5" y="-5" width="100" height="100" as="geometry">
            <mxPoint x="1450" y="338" as="sourcePoint"/>
            <mxPoint x="1420" y="278" as="targetPoint"/>
            <Array as="points">
              <mxPoint x="1280" y="338"/>
              <mxPoint x="1280" y="402"/>
            </Array>
          </mxGeometry>
        </mxCell>
        <mxCell id="KumTwc9kImUSRbm_J5hq-113" value="json" style="swimlane;fontStyle=0;childLayout=stackLayout;horizontal=1;startSize=29;fillColor=#736CA8;horizontalStack=0;resizeParent=1;resizeParentMax=0;resizeLast=0;collapsible=1;marginBottom=0;swimlaneFillColor=#ffffff;align=center;fontSize=14;rounded=0;shadow=0;strokeWidth=2;fontColor=#FFFFFF;spacing=2;spacingTop=0;strokeColor=#736CA8;swimlaneLine=1;html=1;overflow=visible;" parent="1" vertex="1">
          <mxGeometry x="1295" y="450" width="115" height="81" as="geometry">
            <mxRectangle x="1300" y="260" width="70" height="30" as="alternateBounds"/>
          </mxGeometry>
        </mxCell>
        <mxCell id="KumTwc9kImUSRbm_J5hq-114" value="Messages" style="text;spacingLeft=4;spacingRight=4;overflow=hidden;rotatable=0;points=[[0,0.5],[1,0.5]];portConstraint=eastwest;fontSize=12;perimeterSpacing=0;" parent="KumTwc9kImUSRbm_J5hq-113" vertex="1">
          <mxGeometry y="29" width="115" height="26" as="geometry"/>
        </mxCell>
        <mxCell id="KumTwc9kImUSRbm_J5hq-115" value="Json" style="text;spacingLeft=4;spacingRight=4;overflow=hidden;rotatable=0;points=[[0,0.5],[1,0.5]];portConstraint=eastwest;fontSize=12;perimeterSpacing=0;" parent="KumTwc9kImUSRbm_J5hq-113" vertex="1">
          <mxGeometry y="55" width="115" height="26" as="geometry"/>
        </mxCell>
        <mxCell id="KumTwc9kImUSRbm_J5hq-116" value="" style="edgeStyle=none;endArrow=classic;strokeWidth=1;strokeColor=#736CA8;html=1;entryX=1;entryY=0.5;entryDx=0;entryDy=0;rounded=0;endFill=1;exitX=1;exitY=0.5;exitDx=0;exitDy=0;" parent="KumTwc9kImUSRbm_J5hq-113" source="KumTwc9kImUSRbm_J5hq-114" target="KumTwc9kImUSRbm_J5hq-115" edge="1">
          <mxGeometry x="-3209.5" y="-355" width="100" height="100" as="geometry">
            <mxPoint x="165" y="42" as="sourcePoint"/>
            <mxPoint x="125" y="51.999999999999886" as="targetPoint"/>
            <Array as="points">
              <mxPoint x="135" y="42"/>
              <mxPoint x="135" y="68"/>
            </Array>
          </mxGeometry>
        </mxCell>
        <mxCell id="KumTwc9kImUSRbm_J5hq-117" value="" style="edgeStyle=none;endArrow=classic;strokeWidth=1;strokeColor=#736CA8;html=1;entryX=0;entryY=0.5;entryDx=0;entryDy=0;rounded=0;endFill=1;exitX=0;exitY=0.5;exitDx=0;exitDy=0;" parent="1" target="KumTwc9kImUSRbm_J5hq-114" edge="1">
          <mxGeometry x="-1939.5" y="-5" width="100" height="100" as="geometry">
            <mxPoint x="1280" y="337.9999999999999" as="sourcePoint"/>
            <mxPoint x="1280" y="401.9999999999999" as="targetPoint"/>
            <Array as="points">
              <mxPoint x="1270" y="338"/>
              <mxPoint x="1270" y="420"/>
              <mxPoint x="1270" y="492"/>
            </Array>
          </mxGeometry>
        </mxCell>
        <mxCell id="KumTwc9kImUSRbm_J5hq-118" value="xml" style="swimlane;fontStyle=0;childLayout=stackLayout;horizontal=1;startSize=29;fillColor=#736CA8;horizontalStack=0;resizeParent=1;resizeParentMax=0;resizeLast=0;collapsible=1;marginBottom=0;swimlaneFillColor=#ffffff;align=center;fontSize=14;rounded=0;shadow=0;strokeWidth=2;fontColor=#FFFFFF;spacing=2;spacingTop=0;strokeColor=#736CA8;swimlaneLine=1;html=1;overflow=visible;" parent="1" vertex="1">
          <mxGeometry x="1295" y="540" width="115" height="81" as="geometry">
            <mxRectangle x="1300" y="260" width="70" height="30" as="alternateBounds"/>
          </mxGeometry>
        </mxCell>
        <mxCell id="KumTwc9kImUSRbm_J5hq-119" value="Messages" style="text;spacingLeft=4;spacingRight=4;overflow=hidden;rotatable=0;points=[[0,0.5],[1,0.5]];portConstraint=eastwest;fontSize=12;perimeterSpacing=0;" parent="KumTwc9kImUSRbm_J5hq-118" vertex="1">
          <mxGeometry y="29" width="115" height="26" as="geometry"/>
        </mxCell>
        <mxCell id="KumTwc9kImUSRbm_J5hq-120" value="Xml" style="text;spacingLeft=4;spacingRight=4;overflow=hidden;rotatable=0;points=[[0,0.5],[1,0.5]];portConstraint=eastwest;fontSize=12;perimeterSpacing=0;" parent="KumTwc9kImUSRbm_J5hq-118" vertex="1">
          <mxGeometry y="55" width="115" height="26" as="geometry"/>
        </mxCell>
        <mxCell id="KumTwc9kImUSRbm_J5hq-121" value="" style="edgeStyle=none;endArrow=classic;strokeWidth=1;strokeColor=#736CA8;html=1;entryX=1;entryY=0.5;entryDx=0;entryDy=0;rounded=0;endFill=1;exitX=1;exitY=0.5;exitDx=0;exitDy=0;" parent="KumTwc9kImUSRbm_J5hq-118" source="KumTwc9kImUSRbm_J5hq-119" target="KumTwc9kImUSRbm_J5hq-120" edge="1">
          <mxGeometry x="-3209.5" y="-355" width="100" height="100" as="geometry">
            <mxPoint x="165" y="42" as="sourcePoint"/>
            <mxPoint x="125" y="51.999999999999886" as="targetPoint"/>
            <Array as="points">
              <mxPoint x="135" y="42"/>
              <mxPoint x="135" y="68"/>
            </Array>
          </mxGeometry>
        </mxCell>
        <mxCell id="KumTwc9kImUSRbm_J5hq-122" value="" style="edgeStyle=none;endArrow=classic;strokeWidth=1;strokeColor=#736CA8;html=1;entryX=0;entryY=0.5;entryDx=0;entryDy=0;rounded=0;endFill=1;" parent="1" target="KumTwc9kImUSRbm_J5hq-119" edge="1">
          <mxGeometry x="-1954.5" y="-5" width="100" height="100" as="geometry">
            <mxPoint x="1270" y="338" as="sourcePoint"/>
            <mxPoint x="1280" y="491.9999999999999" as="targetPoint"/>
            <Array as="points">
              <mxPoint x="1260" y="338"/>
              <mxPoint x="1260" y="582"/>
            </Array>
          </mxGeometry>
        </mxCell>
        <mxCell id="KumTwc9kImUSRbm_J5hq-123" value="samples" style="swimlane;fontStyle=0;childLayout=stackLayout;horizontal=1;startSize=29;fillColor=#f8cecc;horizontalStack=0;resizeParent=1;resizeParentMax=0;resizeLast=0;collapsible=1;marginBottom=0;swimlaneFillColor=#ffffff;align=center;fontSize=14;rounded=0;shadow=0;strokeWidth=2;spacing=2;spacingTop=0;strokeColor=#B85450;swimlaneLine=1;html=1;overflow=visible;" parent="1" vertex="1">
          <mxGeometry x="1470" y="270" width="130" height="185" as="geometry">
            <mxRectangle x="1450" y="270" width="70" height="30" as="alternateBounds"/>
          </mxGeometry>
        </mxCell>
        <mxCell id="KumTwc9kImUSRbm_J5hq-124" value="search_file" style="text;spacingLeft=4;spacingRight=4;overflow=hidden;rotatable=0;points=[[0,0.5],[1,0.5]];portConstraint=eastwest;fontSize=12;perimeterSpacing=0;" parent="KumTwc9kImUSRbm_J5hq-123" vertex="1">
          <mxGeometry y="29" width="130" height="26" as="geometry"/>
        </mxCell>
        <mxCell id="KumTwc9kImUSRbm_J5hq-125" value="clear_folder" style="text;spacingLeft=4;spacingRight=4;overflow=hidden;rotatable=0;points=[[0,0.5],[1,0.5]];portConstraint=eastwest;fontSize=12;perimeterSpacing=0;" parent="KumTwc9kImUSRbm_J5hq-123" vertex="1">
          <mxGeometry y="55" width="130" height="26" as="geometry"/>
        </mxCell>
        <mxCell id="KumTwc9kImUSRbm_J5hq-127" value="load_csv" style="text;spacingLeft=4;spacingRight=4;overflow=hidden;rotatable=0;points=[[0,0.5],[1,0.5]];portConstraint=eastwest;fontSize=12;perimeterSpacing=0;" parent="KumTwc9kImUSRbm_J5hq-123" vertex="1">
          <mxGeometry y="81" width="130" height="26" as="geometry"/>
        </mxCell>
        <mxCell id="KumTwc9kImUSRbm_J5hq-128" value="extract_columns_csv" style="text;spacingLeft=4;spacingRight=4;overflow=hidden;rotatable=0;points=[[0,0.5],[1,0.5]];portConstraint=eastwest;fontSize=12;perimeterSpacing=0;" parent="KumTwc9kImUSRbm_J5hq-123" vertex="1">
          <mxGeometry y="107" width="130" height="26" as="geometry"/>
        </mxCell>
        <mxCell id="KumTwc9kImUSRbm_J5hq-129" value="load_json" style="text;spacingLeft=4;spacingRight=4;overflow=hidden;rotatable=0;points=[[0,0.5],[1,0.5]];portConstraint=eastwest;fontSize=12;perimeterSpacing=0;" parent="KumTwc9kImUSRbm_J5hq-123" vertex="1">
          <mxGeometry y="133" width="130" height="26" as="geometry"/>
        </mxCell>
        <mxCell id="KumTwc9kImUSRbm_J5hq-130" value="load_xml" style="text;spacingLeft=4;spacingRight=4;overflow=hidden;rotatable=0;points=[[0,0.5],[1,0.5]];portConstraint=eastwest;fontSize=12;perimeterSpacing=0;" parent="KumTwc9kImUSRbm_J5hq-123" vertex="1">
          <mxGeometry y="159" width="130" height="26" as="geometry"/>
        </mxCell>
        <mxCell id="KumTwc9kImUSRbm_J5hq-132" value="argparse" style="rounded=1;whiteSpace=wrap;html=1;shadow=0;glass=0;comic=0;strokeColor=#d79b00;strokeWidth=2;fillColor=#ffe6cc;fontSize=14;align=center;" parent="1" vertex="1">
          <mxGeometry x="1110" y="178.5" width="70" height="25" as="geometry"/>
        </mxCell>
        <mxCell id="KumTwc9kImUSRbm_J5hq-133" value="pandas" style="rounded=1;whiteSpace=wrap;html=1;shadow=0;glass=0;comic=0;strokeColor=#d79b00;strokeWidth=2;fillColor=#ffe6cc;fontSize=14;align=center;" parent="1" vertex="1">
          <mxGeometry x="1110" y="250" width="70" height="25" as="geometry"/>
        </mxCell>
        <mxCell id="KumTwc9kImUSRbm_J5hq-134" value="xmltodict" style="rounded=1;whiteSpace=wrap;html=1;shadow=0;glass=0;comic=0;strokeColor=#d79b00;strokeWidth=2;fillColor=#ffe6cc;fontSize=14;align=center;" parent="1" vertex="1">
          <mxGeometry x="1110" y="299.5" width="70" height="25" as="geometry"/>
        </mxCell>
        <mxCell id="KumTwc9kImUSRbm_J5hq-135" value="pvv" style="ellipse;whiteSpace=wrap;html=1;shadow=0;fontFamily=Helvetica;fontSize=30;fontColor=#FFFFFF;align=center;strokeColor=none;strokeWidth=6;fillColor=#990099;fontStyle=0;gradientColor=none;" parent="1" vertex="1">
          <mxGeometry x="1210" y="624" width="60" height="60" as="geometry"/>
        </mxCell>
        <mxCell id="KumTwc9kImUSRbm_J5hq-138" value="" style="edgeStyle=orthogonalEdgeStyle;rounded=0;orthogonalLoop=1;jettySize=auto;html=1;startSize=30;strokeColor=#736CA8;strokeWidth=3;fontSize=30;fontColor=#000000;endArrow=block;endFill=1;exitX=0.5;exitY=1;exitDx=0;exitDy=0;entryX=0.5;entryY=0;entryDx=0;entryDy=0;" parent="1" source="KumTwc9kImUSRbm_J5hq-86" target="KumTwc9kImUSRbm_J5hq-135" edge="1">
          <mxGeometry relative="1" as="geometry">
            <mxPoint x="1239.5344827586207" y="324.25862068965523" as="sourcePoint"/>
            <mxPoint x="1239.5344827586207" y="414.6034482758621" as="targetPoint"/>
            <Array as="points">
              <mxPoint x="1240" y="500"/>
              <mxPoint x="1240" y="500"/>
            </Array>
          </mxGeometry>
        </mxCell>
        <mxCell id="KumTwc9kImUSRbm_J5hq-139" value="" style="rounded=1;orthogonalLoop=1;jettySize=auto;html=1;startSize=30;endArrow=classic;endFill=1;strokeColor=#D79B00;strokeWidth=2;fontSize=30;fontColor=#000000;exitX=1;exitY=0.5;exitDx=0;exitDy=0;entryX=0;entryY=0;entryDx=0;entryDy=0;" parent="1" source="KumTwc9kImUSRbm_J5hq-140" target="KumTwc9kImUSRbm_J5hq-135" edge="1">
          <mxGeometry relative="1" as="geometry">
            <mxPoint x="1210.6180292105307" y="641.3836043375708" as="targetPoint"/>
            <mxPoint x="1179" y="636.5" as="sourcePoint"/>
          </mxGeometry>
        </mxCell>
        <mxCell id="KumTwc9kImUSRbm_J5hq-140" value="opencv-contrib-python" style="rounded=1;whiteSpace=wrap;html=1;shadow=0;glass=0;comic=0;strokeColor=#d79b00;strokeWidth=2;fillColor=#ffe6cc;fontSize=14;align=center;" parent="1" vertex="1">
          <mxGeometry x="1050" y="615" width="150" height="25" as="geometry"/>
        </mxCell>
        <mxCell id="KumTwc9kImUSRbm_J5hq-141" value="" style="rounded=1;orthogonalLoop=1;jettySize=auto;html=1;startSize=30;endArrow=classic;endFill=1;strokeColor=#D79B00;strokeWidth=2;fontSize=30;fontColor=#000000;exitX=1;exitY=0.5;exitDx=0;exitDy=0;entryX=0;entryY=1;entryDx=0;entryDy=0;" parent="1" source="KumTwc9kImUSRbm_J5hq-142" target="KumTwc9kImUSRbm_J5hq-135" edge="1">
          <mxGeometry relative="1" as="geometry">
            <mxPoint x="1218.7867965643975" y="689.2867965643975" as="targetPoint"/>
            <mxPoint x="1179" y="693" as="sourcePoint"/>
          </mxGeometry>
        </mxCell>
        <mxCell id="KumTwc9kImUSRbm_J5hq-142" value="PyOpenGL" style="rounded=1;whiteSpace=wrap;html=1;shadow=0;glass=0;comic=0;strokeColor=#d79b00;strokeWidth=2;fillColor=#ffe6cc;fontSize=14;align=center;" parent="1" vertex="1">
          <mxGeometry x="1050" y="671.5" width="150" height="25" as="geometry"/>
        </mxCell>
        <mxCell id="KumTwc9kImUSRbm_J5hq-143" value="viewer" style="swimlane;fontStyle=0;childLayout=stackLayout;horizontal=1;startSize=29;fillColor=#990099;horizontalStack=0;resizeParent=1;resizeParentMax=0;resizeLast=0;collapsible=1;marginBottom=0;swimlaneFillColor=#ffffff;align=center;fontSize=14;rounded=0;shadow=0;strokeWidth=2;fontColor=#FFFFFF;spacing=2;spacingTop=0;strokeColor=#990099;swimlaneLine=1;html=1;overflow=visible;" parent="1" vertex="1">
          <mxGeometry x="1295" y="638.5" width="75" height="81" as="geometry">
            <mxRectangle x="1295" y="270" width="70" height="30" as="alternateBounds"/>
          </mxGeometry>
        </mxCell>
        <mxCell id="KumTwc9kImUSRbm_J5hq-144" value="Messages" style="text;spacingLeft=4;spacingRight=4;overflow=hidden;rotatable=0;points=[[0,0.5],[1,0.5]];portConstraint=eastwest;fontSize=12;perimeterSpacing=0;" parent="KumTwc9kImUSRbm_J5hq-143" vertex="1">
          <mxGeometry y="29" width="75" height="26" as="geometry"/>
        </mxCell>
        <mxCell id="KumTwc9kImUSRbm_J5hq-148" value="Viewer" style="text;spacingLeft=4;spacingRight=4;overflow=hidden;rotatable=0;points=[[0,0.5],[1,0.5]];portConstraint=eastwest;fontSize=12;perimeterSpacing=0;" parent="KumTwc9kImUSRbm_J5hq-143" vertex="1">
          <mxGeometry y="55" width="75" height="26" as="geometry"/>
        </mxCell>
        <mxCell id="KumTwc9kImUSRbm_J5hq-150" value="" style="edgeStyle=none;endArrow=classic;strokeWidth=1;strokeColor=#990099;html=1;entryX=1;entryY=0.5;entryDx=0;entryDy=0;rounded=0;endFill=1;" parent="KumTwc9kImUSRbm_J5hq-143" target="KumTwc9kImUSRbm_J5hq-148" edge="1">
          <mxGeometry x="-4504.5" y="-985" width="100" height="100" as="geometry">
            <mxPoint x="145" y="42" as="sourcePoint"/>
            <mxPoint x="125" y="-282.0000000000001" as="targetPoint"/>
            <Array as="points">
              <mxPoint x="145" y="42"/>
              <mxPoint x="145" y="68"/>
            </Array>
          </mxGeometry>
        </mxCell>
        <mxCell id="KumTwc9kImUSRbm_J5hq-147" value="" style="edgeStyle=none;endArrow=none;strokeWidth=2;strokeColor=#990099;html=1;entryX=1;entryY=0.5;entryDx=0;entryDy=0;exitX=0;exitY=0.25;exitDx=0;exitDy=0;rounded=1;" parent="1" source="KumTwc9kImUSRbm_J5hq-143" target="KumTwc9kImUSRbm_J5hq-135" edge="1">
          <mxGeometry x="-589.5" y="9" width="100" height="100" as="geometry">
            <mxPoint x="1305" y="314.4999999999999" as="sourcePoint"/>
            <mxPoint x="1290" y="289" as="targetPoint"/>
            <Array as="points"/>
          </mxGeometry>
        </mxCell>
        <mxCell id="KumTwc9kImUSRbm_J5hq-149" value="" style="edgeStyle=none;endArrow=classic;strokeWidth=1;strokeColor=#E85642;html=1;rounded=0;endFill=1;entryX=1;entryY=0.5;entryDx=0;entryDy=0;" parent="1" target="KumTwc9kImUSRbm_J5hq-144" edge="1">
          <mxGeometry x="-3199.5" y="-345" width="100" height="100" as="geometry">
            <mxPoint x="1430" y="178" as="sourcePoint"/>
            <mxPoint x="1420" y="321.9999999999999" as="targetPoint"/>
            <Array as="points">
              <mxPoint x="1440" y="178"/>
              <mxPoint x="1440" y="681"/>
            </Array>
          </mxGeometry>
        </mxCell>
        <mxCell id="KumTwc9kImUSRbm_J5hq-151" value="samples" style="swimlane;fontStyle=0;childLayout=stackLayout;horizontal=1;startSize=29;fillColor=#f8cecc;horizontalStack=0;resizeParent=1;resizeParentMax=0;resizeLast=0;collapsible=1;marginBottom=0;swimlaneFillColor=#ffffff;align=center;fontSize=14;rounded=0;shadow=0;strokeWidth=2;spacing=2;spacingTop=0;strokeColor=#B85450;swimlaneLine=1;html=1;overflow=visible;" parent="1" vertex="1">
          <mxGeometry x="1470" y="624" width="80" height="55" as="geometry">
            <mxRectangle x="1450" y="270" width="70" height="30" as="alternateBounds"/>
          </mxGeometry>
        </mxCell>
        <mxCell id="KumTwc9kImUSRbm_J5hq-152" value="play" style="text;spacingLeft=4;spacingRight=4;overflow=hidden;rotatable=0;points=[[0,0.5],[1,0.5]];portConstraint=eastwest;fontSize=12;perimeterSpacing=0;" parent="KumTwc9kImUSRbm_J5hq-151" vertex="1">
          <mxGeometry y="29" width="80" height="26" as="geometry"/>
        </mxCell>
        <mxCell id="KumTwc9kImUSRbm_J5hq-159" value="configs" style="swimlane;fontStyle=0;childLayout=stackLayout;horizontal=1;startSize=29;fillColor=#f5f5f5;horizontalStack=0;resizeParent=1;resizeParentMax=0;resizeLast=0;collapsible=1;marginBottom=0;swimlaneFillColor=#ffffff;align=center;fontSize=14;rounded=0;shadow=0;strokeWidth=2;spacing=2;spacingTop=0;strokeColor=#666666;swimlaneLine=1;html=1;overflow=visible;fontColor=#333333;" parent="1" vertex="1">
          <mxGeometry x="1470" y="762" width="80" height="55" as="geometry">
            <mxRectangle x="1450" y="270" width="70" height="30" as="alternateBounds"/>
          </mxGeometry>
        </mxCell>
        <mxCell id="KumTwc9kImUSRbm_J5hq-160" value="config" style="text;spacingLeft=4;spacingRight=4;overflow=hidden;rotatable=0;points=[[0,0.5],[1,0.5]];portConstraint=eastwest;fontSize=12;perimeterSpacing=0;" parent="KumTwc9kImUSRbm_J5hq-159" vertex="1">
          <mxGeometry y="29" width="80" height="26" as="geometry"/>
        </mxCell>
        <mxCell id="KumTwc9kImUSRbm_J5hq-161" value="" style="edgeStyle=none;endArrow=classic;strokeWidth=1;strokeColor=#666666;html=1;rounded=0;endFill=1;exitX=0;exitY=0.5;exitDx=0;exitDy=0;entryX=1;entryY=0.5;entryDx=0;entryDy=0;" parent="1" source="KumTwc9kImUSRbm_J5hq-160" target="7cVted1-Jx99jV1-x10M-3" edge="1">
          <mxGeometry x="-4494.5" y="-975" width="100" height="100" as="geometry">
            <mxPoint x="1450" y="690.5" as="sourcePoint"/>
            <mxPoint x="1590" y="800" as="targetPoint"/>
            <Array as="points"/>
          </mxGeometry>
        </mxCell>
        <mxCell id="7cVted1-Jx99jV1-x10M-1" value="samples/play" style="swimlane;fontStyle=0;childLayout=stackLayout;horizontal=1;startSize=29;fillColor=#990099;horizontalStack=0;resizeParent=1;resizeParentMax=0;resizeLast=0;collapsible=1;marginBottom=0;swimlaneFillColor=#ffffff;align=center;fontSize=14;rounded=0;shadow=0;strokeWidth=2;fontColor=#FFFFFF;spacing=2;spacingTop=0;strokeColor=#990099;swimlaneLine=1;html=1;overflow=visible;" parent="1" vertex="1">
          <mxGeometry x="1295" y="736" width="115" height="81" as="geometry">
            <mxRectangle x="1295" y="270" width="70" height="30" as="alternateBounds"/>
          </mxGeometry>
        </mxCell>
        <mxCell id="7cVted1-Jx99jV1-x10M-2" value="Messages" style="text;spacingLeft=4;spacingRight=4;overflow=hidden;rotatable=0;points=[[0,0.5],[1,0.5]];portConstraint=eastwest;fontSize=12;perimeterSpacing=0;" parent="7cVted1-Jx99jV1-x10M-1" vertex="1">
          <mxGeometry y="29" width="115" height="26" as="geometry"/>
        </mxCell>
        <mxCell id="7cVted1-Jx99jV1-x10M-3" value="Run" style="text;spacingLeft=4;spacingRight=4;overflow=hidden;rotatable=0;points=[[0,0.5],[1,0.5]];portConstraint=eastwest;fontSize=12;perimeterSpacing=0;" parent="7cVted1-Jx99jV1-x10M-1" vertex="1">
          <mxGeometry y="55" width="115" height="26" as="geometry"/>
        </mxCell>
        <mxCell id="7cVted1-Jx99jV1-x10M-7" value="" style="edgeStyle=none;endArrow=classic;strokeWidth=1;strokeColor=#990099;html=1;rounded=0;endFill=1;exitX=0;exitY=0.5;exitDx=0;exitDy=0;entryX=0;entryY=0.5;entryDx=0;entryDy=0;" parent="7cVted1-Jx99jV1-x10M-1" source="7cVted1-Jx99jV1-x10M-2" target="7cVted1-Jx99jV1-x10M-3" edge="1">
          <mxGeometry x="-5779.5" y="-1701" width="100" height="100" as="geometry">
            <mxPoint x="175" y="78" as="sourcePoint"/>
            <mxPoint x="125" y="78" as="targetPoint"/>
            <Array as="points">
              <mxPoint x="-15" y="42"/>
              <mxPoint x="-15" y="68"/>
            </Array>
          </mxGeometry>
        </mxCell>
        <mxCell id="7cVted1-Jx99jV1-x10M-5" value="" style="edgeStyle=none;endArrow=none;strokeWidth=2;strokeColor=#990099;html=1;entryX=1;entryY=1;entryDx=0;entryDy=0;exitX=0;exitY=0.25;exitDx=0;exitDy=0;rounded=1;" parent="1" source="7cVted1-Jx99jV1-x10M-1" target="KumTwc9kImUSRbm_J5hq-135" edge="1">
          <mxGeometry x="-579.5" y="19" width="100" height="100" as="geometry">
            <mxPoint x="1305" y="689" as="sourcePoint"/>
            <mxPoint x="1280" y="664" as="targetPoint"/>
            <Array as="points"/>
          </mxGeometry>
        </mxCell>
        <mxCell id="7cVted1-Jx99jV1-x10M-6" value="" style="edgeStyle=none;endArrow=classic;strokeWidth=1;strokeColor=#E85642;html=1;rounded=0;endFill=1;entryX=1;entryY=0.5;entryDx=0;entryDy=0;exitX=1;exitY=0.5;exitDx=0;exitDy=0;" parent="1" source="KumTwc9kImUSRbm_J5hq-73" target="7cVted1-Jx99jV1-x10M-2" edge="1">
          <mxGeometry x="-3139.5" y="-345.5" width="100" height="100" as="geometry">
            <mxPoint x="1490" y="177.5" as="sourcePoint"/>
            <mxPoint x="1430" y="680" as="targetPoint"/>
            <Array as="points">
              <mxPoint x="1450" y="242"/>
              <mxPoint x="1450" y="778"/>
            </Array>
          </mxGeometry>
        </mxCell>
        <mxCell id="POE3NfWI53jzp_1K2MlO-3" value="facesdet" style="ellipse;whiteSpace=wrap;html=1;shadow=0;fontFamily=Helvetica;fontSize=30;fontColor=#FFFFFF;align=center;strokeColor=none;strokeWidth=6;fillColor=#3A615A;fontStyle=0;gradientColor=none;" parent="1" vertex="1">
          <mxGeometry x="1340" y="895.5" width="130" height="60" as="geometry"/>
        </mxCell>
        <mxCell id="POE3NfWI53jzp_1K2MlO-4" value="" style="rounded=1;orthogonalLoop=1;jettySize=auto;html=1;startSize=30;endArrow=classic;endFill=1;strokeColor=#D79B00;strokeWidth=2;fontSize=30;fontColor=#000000;exitX=1;exitY=0.5;exitDx=0;exitDy=0;entryX=0;entryY=0;entryDx=0;entryDy=0;" parent="1" source="POE3NfWI53jzp_1K2MlO-5" target="POE3NfWI53jzp_1K2MlO-3" edge="1">
          <mxGeometry relative="1" as="geometry">
            <mxPoint x="1383.7867965643975" y="877.7867965643975" as="targetPoint"/>
            <mxPoint x="1344" y="881.5" as="sourcePoint"/>
          </mxGeometry>
        </mxCell>
        <mxCell id="POE3NfWI53jzp_1K2MlO-5" value="numpy" style="rounded=1;whiteSpace=wrap;html=1;shadow=0;glass=0;comic=0;strokeColor=#d79b00;strokeWidth=2;fillColor=#ffe6cc;fontSize=14;align=center;" parent="1" vertex="1">
          <mxGeometry x="1260" y="883" width="60" height="25" as="geometry"/>
        </mxCell>
        <mxCell id="POE3NfWI53jzp_1K2MlO-6" value="" style="rounded=1;orthogonalLoop=1;jettySize=auto;html=1;startSize=30;endArrow=classic;endFill=1;strokeColor=#D79B00;strokeWidth=2;fontSize=30;fontColor=#000000;exitX=1;exitY=0.5;exitDx=0;exitDy=0;entryX=0;entryY=1;entryDx=0;entryDy=0;" parent="1" source="POE3NfWI53jzp_1K2MlO-7" target="POE3NfWI53jzp_1K2MlO-3" edge="1">
          <mxGeometry relative="1" as="geometry">
            <mxPoint x="1353.8338777126608" y="964.3814546983447" as="targetPoint"/>
            <mxPoint x="1339" y="941.5" as="sourcePoint"/>
          </mxGeometry>
        </mxCell>
        <mxCell id="POE3NfWI53jzp_1K2MlO-7" value="dlib" style="rounded=1;whiteSpace=wrap;html=1;shadow=0;glass=0;comic=0;strokeColor=#d79b00;strokeWidth=2;fillColor=#ffe6cc;fontSize=14;align=center;" parent="1" vertex="1">
          <mxGeometry x="1260" y="945.5" width="60" height="25" as="geometry"/>
        </mxCell>
        <mxCell id="POE3NfWI53jzp_1K2MlO-11" value="detection" style="swimlane;fontStyle=0;childLayout=stackLayout;horizontal=1;startSize=29;fillColor=#3A615A;horizontalStack=0;resizeParent=1;resizeParentMax=0;resizeLast=0;collapsible=1;marginBottom=0;swimlaneFillColor=#ffffff;align=center;fontSize=14;rounded=0;shadow=0;strokeWidth=2;fontColor=#FFFFFF;spacing=2;spacingTop=0;strokeColor=#3A615A;swimlaneLine=1;html=1;overflow=visible;" parent="1" vertex="1">
          <mxGeometry x="1490" y="910" width="85" height="81" as="geometry">
            <mxRectangle x="1295" y="270" width="70" height="30" as="alternateBounds"/>
          </mxGeometry>
        </mxCell>
        <mxCell id="POE3NfWI53jzp_1K2MlO-12" value="Messages" style="text;spacingLeft=4;spacingRight=4;overflow=hidden;rotatable=0;points=[[0,0.5],[1,0.5]];portConstraint=eastwest;fontSize=12;perimeterSpacing=0;" parent="POE3NfWI53jzp_1K2MlO-11" vertex="1">
          <mxGeometry y="29" width="85" height="26" as="geometry"/>
        </mxCell>
        <mxCell id="POE3NfWI53jzp_1K2MlO-13" value="Detection" style="text;spacingLeft=4;spacingRight=4;overflow=hidden;rotatable=0;points=[[0,0.5],[1,0.5]];portConstraint=eastwest;fontSize=12;perimeterSpacing=0;" parent="POE3NfWI53jzp_1K2MlO-11" vertex="1">
          <mxGeometry y="55" width="85" height="26" as="geometry"/>
        </mxCell>
        <mxCell id="POE3NfWI53jzp_1K2MlO-18" value="" style="edgeStyle=none;endArrow=classic;strokeWidth=1;strokeColor=#3A615A;html=1;rounded=0;endFill=1;exitX=0;exitY=0.5;exitDx=0;exitDy=0;entryX=0;entryY=0.5;entryDx=0;entryDy=0;" parent="POE3NfWI53jzp_1K2MlO-11" source="POE3NfWI53jzp_1K2MlO-12" target="POE3NfWI53jzp_1K2MlO-13" edge="1">
          <mxGeometry x="-7094.5" y="-2531" width="100" height="100" as="geometry">
            <mxPoint x="-20" y="-52.00000000000023" as="sourcePoint"/>
            <mxPoint x="-20" y="-26" as="targetPoint"/>
            <Array as="points">
              <mxPoint x="-15" y="42"/>
              <mxPoint x="-15" y="68"/>
            </Array>
          </mxGeometry>
        </mxCell>
        <mxCell id="POE3NfWI53jzp_1K2MlO-15" value="" style="edgeStyle=none;endArrow=none;strokeWidth=2;strokeColor=#3A615A;html=1;entryX=1;entryY=0.5;entryDx=0;entryDy=0;exitX=0;exitY=0.25;exitDx=0;exitDy=0;rounded=1;" parent="1" source="POE3NfWI53jzp_1K2MlO-11" target="POE3NfWI53jzp_1K2MlO-3" edge="1">
          <mxGeometry x="-414.5" y="74.5" width="100" height="100" as="geometry">
            <mxPoint x="1470" y="724.25" as="sourcePoint"/>
            <mxPoint x="1445.0000000000043" y="719.5" as="targetPoint"/>
            <Array as="points"/>
          </mxGeometry>
        </mxCell>
        <mxCell id="POE3NfWI53jzp_1K2MlO-17" value="" style="edgeStyle=none;endArrow=classic;strokeWidth=1;strokeColor=#E85642;html=1;rounded=0;endFill=1;entryX=1;entryY=0.5;entryDx=0;entryDy=0;" parent="1" target="POE3NfWI53jzp_1K2MlO-12" edge="1">
          <mxGeometry x="-3189.5" y="-335" width="100" height="100" as="geometry">
            <mxPoint x="1440" y="178" as="sourcePoint"/>
            <mxPoint x="1380" y="690.4999999999998" as="targetPoint"/>
            <Array as="points">
              <mxPoint x="1460" y="178"/>
              <mxPoint x="1460" y="850"/>
              <mxPoint x="1600" y="850"/>
              <mxPoint x="1600" y="952"/>
            </Array>
          </mxGeometry>
        </mxCell>
        <mxCell id="POE3NfWI53jzp_1K2MlO-19" value="samples" style="swimlane;fontStyle=0;childLayout=stackLayout;horizontal=1;startSize=29;fillColor=#f8cecc;horizontalStack=0;resizeParent=1;resizeParentMax=0;resizeLast=0;collapsible=1;marginBottom=0;swimlaneFillColor=#ffffff;align=center;fontSize=14;rounded=0;shadow=0;strokeWidth=2;spacing=2;spacingTop=0;strokeColor=#B85450;swimlaneLine=1;html=1;overflow=visible;" parent="1" vertex="1">
          <mxGeometry x="1635" y="895.5" width="80" height="55" as="geometry">
            <mxRectangle x="1450" y="270" width="70" height="30" as="alternateBounds"/>
          </mxGeometry>
        </mxCell>
        <mxCell id="POE3NfWI53jzp_1K2MlO-20" value="detection" style="text;spacingLeft=4;spacingRight=4;overflow=hidden;rotatable=0;points=[[0,0.5],[1,0.5]];portConstraint=eastwest;fontSize=12;perimeterSpacing=0;" parent="POE3NfWI53jzp_1K2MlO-19" vertex="1">
          <mxGeometry y="29" width="80" height="26" as="geometry"/>
        </mxCell>
        <mxCell id="POE3NfWI53jzp_1K2MlO-22" value="samples/detection" style="swimlane;fontStyle=0;childLayout=stackLayout;horizontal=1;startSize=29;fillColor=#3A615A;horizontalStack=0;resizeParent=1;resizeParentMax=0;resizeLast=0;collapsible=1;marginBottom=0;swimlaneFillColor=#ffffff;align=center;fontSize=14;rounded=0;shadow=0;strokeWidth=2;fontColor=#FFFFFF;spacing=2;spacingTop=0;strokeColor=#3A615A;swimlaneLine=1;html=1;overflow=visible;" parent="1" vertex="1">
          <mxGeometry x="1430" y="1005.5" width="145" height="81" as="geometry">
            <mxRectangle x="1295" y="270" width="70" height="30" as="alternateBounds"/>
          </mxGeometry>
        </mxCell>
        <mxCell id="POE3NfWI53jzp_1K2MlO-23" value="Messages" style="text;spacingLeft=4;spacingRight=4;overflow=hidden;rotatable=0;points=[[0,0.5],[1,0.5]];portConstraint=eastwest;fontSize=12;perimeterSpacing=0;" parent="POE3NfWI53jzp_1K2MlO-22" vertex="1">
          <mxGeometry y="29" width="145" height="26" as="geometry"/>
        </mxCell>
        <mxCell id="POE3NfWI53jzp_1K2MlO-24" value="Run" style="text;spacingLeft=4;spacingRight=4;overflow=hidden;rotatable=0;points=[[0,0.5],[1,0.5]];portConstraint=eastwest;fontSize=12;perimeterSpacing=0;" parent="POE3NfWI53jzp_1K2MlO-22" vertex="1">
          <mxGeometry y="55" width="145" height="26" as="geometry"/>
        </mxCell>
        <mxCell id="POE3NfWI53jzp_1K2MlO-25" value="" style="edgeStyle=none;endArrow=classic;strokeWidth=1;strokeColor=#3A615A;html=1;rounded=0;endFill=1;exitX=0;exitY=0.5;exitDx=0;exitDy=0;entryX=0;entryY=0.5;entryDx=0;entryDy=0;" parent="POE3NfWI53jzp_1K2MlO-22" source="POE3NfWI53jzp_1K2MlO-23" target="POE3NfWI53jzp_1K2MlO-24" edge="1">
          <mxGeometry x="-7094.5" y="-2531" width="100" height="100" as="geometry">
            <mxPoint x="-20" y="-52.00000000000023" as="sourcePoint"/>
            <mxPoint x="-20" y="-26" as="targetPoint"/>
            <Array as="points">
              <mxPoint x="-15" y="42"/>
              <mxPoint x="-15" y="68"/>
            </Array>
          </mxGeometry>
        </mxCell>
        <mxCell id="POE3NfWI53jzp_1K2MlO-26" value="configs" style="swimlane;fontStyle=0;childLayout=stackLayout;horizontal=1;startSize=29;fillColor=#f5f5f5;horizontalStack=0;resizeParent=1;resizeParentMax=0;resizeLast=0;collapsible=1;marginBottom=0;swimlaneFillColor=#ffffff;align=center;fontSize=14;rounded=0;shadow=0;strokeWidth=2;spacing=2;spacingTop=0;strokeColor=#666666;swimlaneLine=1;html=1;overflow=visible;fontColor=#333333;" parent="1" vertex="1">
          <mxGeometry x="1635" y="1031.5" width="80" height="55" as="geometry">
            <mxRectangle x="1450" y="270" width="70" height="30" as="alternateBounds"/>
          </mxGeometry>
        </mxCell>
        <mxCell id="POE3NfWI53jzp_1K2MlO-27" value="config" style="text;spacingLeft=4;spacingRight=4;overflow=hidden;rotatable=0;points=[[0,0.5],[1,0.5]];portConstraint=eastwest;fontSize=12;perimeterSpacing=0;" parent="POE3NfWI53jzp_1K2MlO-26" vertex="1">
          <mxGeometry y="29" width="80" height="26" as="geometry"/>
        </mxCell>
        <mxCell id="POE3NfWI53jzp_1K2MlO-28" value="" style="edgeStyle=none;endArrow=classic;strokeWidth=1;strokeColor=#666666;html=1;rounded=0;endFill=1;exitX=0;exitY=0.5;exitDx=0;exitDy=0;entryX=1;entryY=0.5;entryDx=0;entryDy=0;" parent="1" source="POE3NfWI53jzp_1K2MlO-27" target="POE3NfWI53jzp_1K2MlO-24" edge="1">
          <mxGeometry x="-4249.5" y="-701.5" width="100" height="100" as="geometry">
            <mxPoint x="1695" y="964" as="sourcePoint"/>
            <mxPoint x="1655" y="1077.5" as="targetPoint"/>
            <Array as="points"/>
          </mxGeometry>
        </mxCell>
        <mxCell id="POE3NfWI53jzp_1K2MlO-29" value="" style="edgeStyle=none;endArrow=classic;strokeWidth=1;strokeColor=#990099;html=1;entryX=1;entryY=0.5;entryDx=0;entryDy=0;rounded=0;endFill=1;" parent="1" target="POE3NfWI53jzp_1K2MlO-23" edge="1">
          <mxGeometry x="-4494.5" y="-975" width="100" height="100" as="geometry">
            <mxPoint x="1280" y="804" as="sourcePoint"/>
            <mxPoint x="1380" y="716.5" as="targetPoint"/>
            <Array as="points">
              <mxPoint x="1280" y="830"/>
              <mxPoint x="1610" y="830"/>
              <mxPoint x="1610" y="1048"/>
            </Array>
          </mxGeometry>
        </mxCell>
        <mxCell id="R3kFZBFlcR3WJzUdwjkD-1" value="objdet" style="ellipse;whiteSpace=wrap;html=1;shadow=0;fontFamily=Helvetica;fontSize=30;fontColor=#FFFFFF;align=center;strokeColor=none;strokeWidth=6;fillColor=#663300;fontStyle=0;gradientColor=none;" parent="1" vertex="1">
          <mxGeometry x="860" y="895.5" width="130" height="60" as="geometry"/>
        </mxCell>
        <mxCell id="KumTwc9kImUSRbm_J5hq-126" value="" style="edgeStyle=none;endArrow=none;strokeWidth=2;strokeColor=#736CA8;html=1;entryX=0.5;entryY=0;entryDx=0;entryDy=0;rounded=0;exitX=0.647;exitY=0.043;exitDx=0;exitDy=0;exitPerimeter=0;" parent="1" source="KumTwc9kImUSRbm_J5hq-86" target="KumTwc9kImUSRbm_J5hq-123" edge="1">
          <mxGeometry x="-624.5" y="-85" width="100" height="100" as="geometry">
            <mxPoint x="1385" y="88" as="sourcePoint"/>
            <mxPoint x="1274.7487373415274" y="79.74873734152743" as="targetPoint"/>
            <Array as="points">
              <mxPoint x="1535" y="261"/>
            </Array>
          </mxGeometry>
        </mxCell>
        <mxCell id="KumTwc9kImUSRbm_J5hq-158" value="" style="edgeStyle=none;endArrow=none;strokeWidth=2;strokeColor=#990099;html=1;entryX=1;entryY=0;entryDx=0;entryDy=0;exitX=0.003;exitY=0.146;exitDx=0;exitDy=0;rounded=1;exitPerimeter=0;" parent="1" source="KumTwc9kImUSRbm_J5hq-151" target="KumTwc9kImUSRbm_J5hq-135" edge="1">
          <mxGeometry x="-579.5" y="19" width="100" height="100" as="geometry">
            <mxPoint x="1305" y="689" as="sourcePoint"/>
            <mxPoint x="1280.0000000000043" y="664" as="targetPoint"/>
            <Array as="points"/>
          </mxGeometry>
        </mxCell>
        <mxCell id="POE3NfWI53jzp_1K2MlO-21" value="" style="edgeStyle=none;endArrow=none;strokeWidth=2;strokeColor=#3A615A;html=1;entryX=0.781;entryY=0.102;entryDx=0;entryDy=0;exitX=-0.012;exitY=0.111;exitDx=0;exitDy=0;rounded=1;exitPerimeter=0;entryPerimeter=0;" parent="1" source="POE3NfWI53jzp_1K2MlO-19" target="POE3NfWI53jzp_1K2MlO-3" edge="1">
          <mxGeometry x="-404.5" y="84.5" width="100" height="100" as="geometry">
            <mxPoint x="1500" y="940.25" as="sourcePoint"/>
            <mxPoint x="1480.000000000002" y="935.5" as="targetPoint"/>
            <Array as="points"/>
          </mxGeometry>
        </mxCell>
        <mxCell id="R3kFZBFlcR3WJzUdwjkD-2" value="detection" style="swimlane;fontStyle=0;childLayout=stackLayout;horizontal=1;startSize=29;fillColor=#663300;horizontalStack=0;resizeParent=1;resizeParentMax=0;resizeLast=0;collapsible=1;marginBottom=0;swimlaneFillColor=#ffffff;align=center;fontSize=14;rounded=0;shadow=0;strokeWidth=2;fontColor=#FFFFFF;spacing=2;spacingTop=0;strokeColor=#663300;swimlaneLine=1;html=1;overflow=visible;" parent="1" vertex="1">
          <mxGeometry x="1013" y="910" width="85" height="81" as="geometry">
            <mxRectangle x="1295" y="270" width="70" height="30" as="alternateBounds"/>
          </mxGeometry>
        </mxCell>
        <mxCell id="R3kFZBFlcR3WJzUdwjkD-3" value="Messages" style="text;spacingLeft=4;spacingRight=4;overflow=hidden;rotatable=0;points=[[0,0.5],[1,0.5]];portConstraint=eastwest;fontSize=12;perimeterSpacing=0;" parent="R3kFZBFlcR3WJzUdwjkD-2" vertex="1">
          <mxGeometry y="29" width="85" height="26" as="geometry"/>
        </mxCell>
        <mxCell id="R3kFZBFlcR3WJzUdwjkD-4" value="Detection" style="text;spacingLeft=4;spacingRight=4;overflow=hidden;rotatable=0;points=[[0,0.5],[1,0.5]];portConstraint=eastwest;fontSize=12;perimeterSpacing=0;" parent="R3kFZBFlcR3WJzUdwjkD-2" vertex="1">
          <mxGeometry y="55" width="85" height="26" as="geometry"/>
        </mxCell>
        <mxCell id="R3kFZBFlcR3WJzUdwjkD-5" value="" style="edgeStyle=none;endArrow=classic;strokeWidth=1;strokeColor=#663300;html=1;rounded=0;endFill=1;exitX=0;exitY=0.5;exitDx=0;exitDy=0;entryX=0;entryY=0.5;entryDx=0;entryDy=0;" parent="R3kFZBFlcR3WJzUdwjkD-2" source="R3kFZBFlcR3WJzUdwjkD-3" target="R3kFZBFlcR3WJzUdwjkD-4" edge="1">
          <mxGeometry x="-7094.5" y="-2531" width="100" height="100" as="geometry">
            <mxPoint x="-20" y="-52.00000000000023" as="sourcePoint"/>
            <mxPoint x="-20" y="-26" as="targetPoint"/>
            <Array as="points">
              <mxPoint x="-15" y="42"/>
              <mxPoint x="-15" y="68"/>
            </Array>
          </mxGeometry>
        </mxCell>
        <mxCell id="R3kFZBFlcR3WJzUdwjkD-8" value="" style="edgeStyle=none;endArrow=none;strokeWidth=2;strokeColor=#663300;html=1;entryX=1;entryY=0.5;entryDx=0;entryDy=0;exitX=0;exitY=0.25;exitDx=0;exitDy=0;rounded=1;" parent="1" source="R3kFZBFlcR3WJzUdwjkD-2" target="R3kFZBFlcR3WJzUdwjkD-1" edge="1">
          <mxGeometry x="-466.5" y="84.5" width="100" height="100" as="geometry">
            <mxPoint x="1438" y="940.25" as="sourcePoint"/>
            <mxPoint x="1418" y="935.5" as="targetPoint"/>
            <Array as="points"/>
          </mxGeometry>
        </mxCell>
        <mxCell id="R3kFZBFlcR3WJzUdwjkD-11" value="" style="edgeStyle=none;endArrow=classic;strokeWidth=1;strokeColor=#E85642;html=1;rounded=0;endFill=1;entryX=1;entryY=0.5;entryDx=0;entryDy=0;" parent="1" target="R3kFZBFlcR3WJzUdwjkD-3" edge="1">
          <mxGeometry x="-4724.5" y="-868" width="100" height="100" as="geometry">
            <mxPoint x="1460" y="850" as="sourcePoint"/>
            <mxPoint x="1180" y="911" as="targetPoint"/>
            <Array as="points">
              <mxPoint x="1120" y="850"/>
              <mxPoint x="1120" y="952"/>
            </Array>
          </mxGeometry>
        </mxCell>
        <mxCell id="POE3NfWI53jzp_1K2MlO-10" value="" style="edgeStyle=orthogonalEdgeStyle;rounded=0;orthogonalLoop=1;jettySize=auto;html=1;startSize=30;strokeColor=#990099;strokeWidth=3;fontSize=30;fontColor=#000000;endArrow=block;endFill=1;exitX=0.5;exitY=1;exitDx=0;exitDy=0;entryX=0.5;entryY=0;entryDx=0;entryDy=0;" parent="1" source="KumTwc9kImUSRbm_J5hq-135" target="POE3NfWI53jzp_1K2MlO-3" edge="1">
          <mxGeometry relative="1" as="geometry">
            <mxPoint x="1240.2" y="695" as="sourcePoint"/>
            <mxPoint x="1269.5344827586207" y="948.5344827586207" as="targetPoint"/>
            <Array as="points">
              <mxPoint x="1240" y="861"/>
              <mxPoint x="1405" y="861"/>
            </Array>
          </mxGeometry>
        </mxCell>
        <mxCell id="R3kFZBFlcR3WJzUdwjkD-12" value="samples/detection" style="swimlane;fontStyle=0;childLayout=stackLayout;horizontal=1;startSize=29;fillColor=#663300;horizontalStack=0;resizeParent=1;resizeParentMax=0;resizeLast=0;collapsible=1;marginBottom=0;swimlaneFillColor=#ffffff;align=center;fontSize=14;rounded=0;shadow=0;strokeWidth=2;fontColor=#FFFFFF;spacing=2;spacingTop=0;strokeColor=#663300;swimlaneLine=1;html=1;overflow=visible;" parent="1" vertex="1">
          <mxGeometry x="953" y="1005.5" width="145" height="81" as="geometry">
            <mxRectangle x="1295" y="270" width="70" height="30" as="alternateBounds"/>
          </mxGeometry>
        </mxCell>
        <mxCell id="R3kFZBFlcR3WJzUdwjkD-13" value="Messages" style="text;spacingLeft=4;spacingRight=4;overflow=hidden;rotatable=0;points=[[0,0.5],[1,0.5]];portConstraint=eastwest;fontSize=12;perimeterSpacing=0;" parent="R3kFZBFlcR3WJzUdwjkD-12" vertex="1">
          <mxGeometry y="29" width="145" height="26" as="geometry"/>
        </mxCell>
        <mxCell id="R3kFZBFlcR3WJzUdwjkD-14" value="Run" style="text;spacingLeft=4;spacingRight=4;overflow=hidden;rotatable=0;points=[[0,0.5],[1,0.5]];portConstraint=eastwest;fontSize=12;perimeterSpacing=0;" parent="R3kFZBFlcR3WJzUdwjkD-12" vertex="1">
          <mxGeometry y="55" width="145" height="26" as="geometry"/>
        </mxCell>
        <mxCell id="R3kFZBFlcR3WJzUdwjkD-15" value="" style="edgeStyle=none;endArrow=classic;strokeWidth=1;strokeColor=#663300;html=1;rounded=0;endFill=1;exitX=0;exitY=0.5;exitDx=0;exitDy=0;entryX=0;entryY=0.5;entryDx=0;entryDy=0;" parent="R3kFZBFlcR3WJzUdwjkD-12" source="R3kFZBFlcR3WJzUdwjkD-13" target="R3kFZBFlcR3WJzUdwjkD-14" edge="1">
          <mxGeometry x="-7094.5" y="-2531" width="100" height="100" as="geometry">
            <mxPoint x="-20" y="-52.00000000000023" as="sourcePoint"/>
            <mxPoint x="-20" y="-26" as="targetPoint"/>
            <Array as="points">
              <mxPoint x="-15" y="42"/>
              <mxPoint x="-15" y="68"/>
            </Array>
          </mxGeometry>
        </mxCell>
        <mxCell id="R3kFZBFlcR3WJzUdwjkD-16" value="" style="edgeStyle=none;endArrow=classic;strokeWidth=1;strokeColor=#990099;html=1;entryX=1;entryY=0.5;entryDx=0;entryDy=0;rounded=0;endFill=1;" parent="1" target="R3kFZBFlcR3WJzUdwjkD-13" edge="1">
          <mxGeometry x="-4484.5" y="-965" width="100" height="100" as="geometry">
            <mxPoint x="1280" y="830" as="sourcePoint"/>
            <mxPoint x="1585" y="1057.5" as="targetPoint"/>
            <Array as="points">
              <mxPoint x="1130" y="830"/>
              <mxPoint x="1130" y="1048"/>
            </Array>
          </mxGeometry>
        </mxCell>
        <mxCell id="R3kFZBFlcR3WJzUdwjkD-17" value="samples" style="swimlane;fontStyle=0;childLayout=stackLayout;horizontal=1;startSize=29;fillColor=#f8cecc;horizontalStack=0;resizeParent=1;resizeParentMax=0;resizeLast=0;collapsible=1;marginBottom=0;swimlaneFillColor=#ffffff;align=center;fontSize=14;rounded=0;shadow=0;strokeWidth=2;spacing=2;spacingTop=0;strokeColor=#B85450;swimlaneLine=1;html=1;overflow=visible;" parent="1" vertex="1">
          <mxGeometry x="1145" y="890.5" width="80" height="55" as="geometry">
            <mxRectangle x="1450" y="270" width="70" height="30" as="alternateBounds"/>
          </mxGeometry>
        </mxCell>
        <mxCell id="R3kFZBFlcR3WJzUdwjkD-18" value="detection" style="text;spacingLeft=4;spacingRight=4;overflow=hidden;rotatable=0;points=[[0,0.5],[1,0.5]];portConstraint=eastwest;fontSize=12;perimeterSpacing=0;" parent="R3kFZBFlcR3WJzUdwjkD-17" vertex="1">
          <mxGeometry y="29" width="80" height="26" as="geometry"/>
        </mxCell>
        <mxCell id="R3kFZBFlcR3WJzUdwjkD-7" value="" style="edgeStyle=orthogonalEdgeStyle;rounded=0;orthogonalLoop=1;jettySize=auto;html=1;startSize=30;strokeColor=#990099;strokeWidth=3;fontSize=30;fontColor=#000000;endArrow=block;endFill=1;entryX=0.5;entryY=0;entryDx=0;entryDy=0;" parent="1" target="R3kFZBFlcR3WJzUdwjkD-1" edge="1">
          <mxGeometry relative="1" as="geometry">
            <mxPoint x="1240" y="861" as="sourcePoint"/>
            <mxPoint x="1200" y="983.3" as="targetPoint"/>
            <Array as="points">
              <mxPoint x="925" y="861"/>
            </Array>
          </mxGeometry>
        </mxCell>
        <mxCell id="R3kFZBFlcR3WJzUdwjkD-19" value="" style="edgeStyle=none;endArrow=none;strokeWidth=2;strokeColor=#663300;html=1;entryX=0.678;entryY=0.048;entryDx=0;entryDy=0;rounded=1;entryPerimeter=0;" parent="1" edge="1">
          <mxGeometry x="-876.5" y="53" width="100" height="100" as="geometry">
            <mxPoint x="1145" y="898" as="sourcePoint"/>
            <mxPoint x="950.1399999999999" y="898.3799999999999" as="targetPoint"/>
            <Array as="points"/>
          </mxGeometry>
        </mxCell>
        <mxCell id="R3kFZBFlcR3WJzUdwjkD-20" value="configs" style="swimlane;fontStyle=0;childLayout=stackLayout;horizontal=1;startSize=29;fillColor=#f5f5f5;horizontalStack=0;resizeParent=1;resizeParentMax=0;resizeLast=0;collapsible=1;marginBottom=0;swimlaneFillColor=#ffffff;align=center;fontSize=14;rounded=0;shadow=0;strokeWidth=2;spacing=2;spacingTop=0;strokeColor=#666666;swimlaneLine=1;html=1;overflow=visible;fontColor=#333333;" parent="1" vertex="1">
          <mxGeometry x="1140" y="1031.5" width="80" height="55" as="geometry">
            <mxRectangle x="1450" y="270" width="70" height="30" as="alternateBounds"/>
          </mxGeometry>
        </mxCell>
        <mxCell id="R3kFZBFlcR3WJzUdwjkD-21" value="config" style="text;spacingLeft=4;spacingRight=4;overflow=hidden;rotatable=0;points=[[0,0.5],[1,0.5]];portConstraint=eastwest;fontSize=12;perimeterSpacing=0;" parent="R3kFZBFlcR3WJzUdwjkD-20" vertex="1">
          <mxGeometry y="29" width="80" height="26" as="geometry"/>
        </mxCell>
        <mxCell id="R3kFZBFlcR3WJzUdwjkD-22" value="" style="edgeStyle=none;endArrow=classic;strokeWidth=1;strokeColor=#666666;html=1;rounded=0;endFill=1;exitX=0;exitY=0.5;exitDx=0;exitDy=0;entryX=1;entryY=0.5;entryDx=0;entryDy=0;" parent="1" source="R3kFZBFlcR3WJzUdwjkD-21" target="R3kFZBFlcR3WJzUdwjkD-14" edge="1">
          <mxGeometry x="-4726.5" y="-713" width="100" height="100" as="geometry">
            <mxPoint x="1218" y="952.5" as="sourcePoint"/>
            <mxPoint x="1098" y="1062" as="targetPoint"/>
            <Array as="points"/>
          </mxGeometry>
        </mxCell>
        <mxCell id="R3kFZBFlcR3WJzUdwjkD-23" value="" style="rounded=1;orthogonalLoop=1;jettySize=auto;html=1;startSize=30;endArrow=classic;endFill=1;strokeColor=#D79B00;strokeWidth=2;fontSize=30;fontColor=#000000;exitX=1;exitY=0.5;exitDx=0;exitDy=0;entryX=0;entryY=0;entryDx=0;entryDy=0;" parent="1" source="R3kFZBFlcR3WJzUdwjkD-24" target="R3kFZBFlcR3WJzUdwjkD-1" edge="1">
          <mxGeometry relative="1" as="geometry">
            <mxPoint x="873" y="870" as="targetPoint"/>
            <mxPoint x="864" y="881.5" as="sourcePoint"/>
          </mxGeometry>
        </mxCell>
        <mxCell id="R3kFZBFlcR3WJzUdwjkD-24" value="numpy" style="rounded=1;whiteSpace=wrap;html=1;shadow=0;glass=0;comic=0;strokeColor=#d79b00;strokeWidth=2;fillColor=#ffe6cc;fontSize=14;align=center;" parent="1" vertex="1">
          <mxGeometry x="760" y="883" width="80" height="25" as="geometry"/>
        </mxCell>
        <mxCell id="R3kFZBFlcR3WJzUdwjkD-25" value="" style="rounded=1;orthogonalLoop=1;jettySize=auto;html=1;startSize=30;endArrow=classic;endFill=1;strokeColor=#D79B00;strokeWidth=2;fontSize=30;fontColor=#000000;exitX=1;exitY=0.5;exitDx=0;exitDy=0;entryX=0;entryY=1;entryDx=0;entryDy=0;" parent="1" source="R3kFZBFlcR3WJzUdwjkD-26" target="R3kFZBFlcR3WJzUdwjkD-1" edge="1">
          <mxGeometry relative="1" as="geometry">
            <mxPoint x="879" y="980" as="targetPoint"/>
            <mxPoint x="859" y="941.5" as="sourcePoint"/>
          </mxGeometry>
        </mxCell>
        <mxCell id="R3kFZBFlcR3WJzUdwjkD-26" value="tensorflow" style="rounded=1;whiteSpace=wrap;html=1;shadow=0;glass=0;comic=0;strokeColor=#d79b00;strokeWidth=2;fillColor=#ffe6cc;fontSize=14;align=center;" parent="1" vertex="1">
          <mxGeometry x="760" y="946" width="80" height="25" as="geometry"/>
        </mxCell>
        <mxCell id="uQBioreryDMQQ-at6PrY-1" value="" style="edgeStyle=none;endArrow=none;strokeWidth=2;strokeColor=#663300;html=1;entryX=1;entryY=1;entryDx=0;entryDy=0;exitX=0.25;exitY=0;exitDx=0;exitDy=0;rounded=1;" edge="1" parent="1" source="R3kFZBFlcR3WJzUdwjkD-12" target="R3kFZBFlcR3WJzUdwjkD-1">
          <mxGeometry x="-456.5" y="94.5" width="100" height="100" as="geometry">
            <mxPoint x="1023" y="940.25" as="sourcePoint"/>
            <mxPoint x="1000" y="935.5" as="targetPoint"/>
            <Array as="points"/>
          </mxGeometry>
        </mxCell>
        <mxCell id="uQBioreryDMQQ-at6PrY-2" value="" style="edgeStyle=none;endArrow=none;strokeWidth=2;strokeColor=#3A615A;html=1;entryX=1;entryY=1;entryDx=0;entryDy=0;exitX=0.25;exitY=0;exitDx=0;exitDy=0;rounded=1;" edge="1" parent="1" source="POE3NfWI53jzp_1K2MlO-22" target="POE3NfWI53jzp_1K2MlO-3">
          <mxGeometry x="-404.5" y="84.5" width="100" height="100" as="geometry">
            <mxPoint x="1500" y="940.25" as="sourcePoint"/>
            <mxPoint x="1480" y="935.5" as="targetPoint"/>
            <Array as="points"/>
          </mxGeometry>
        </mxCell>
      </root>
    </mxGraphModel>
  </diagram>
</mxfile>
